<?xml version="1.0" encoding="UTF-8"?>
<svg width="150" height="380" viewBox="0 0 150 380" xmlns="http://www.w3.org/2000/svg">
  <defs>
    <linearGradient id="panel" x1="0" y1="0" x2="0" y2="380">
      <stop offset="0" stop-color="#f8f2e8"/>
      <stop offset="0.55" stop-color="#efe6d5"/>
      <stop offset="1" stop-color="#e4dac8"/>
    </linearGradient>
    <linearGradient id="header" x1="0" y1="6" x2="0" y2="72">
      <stop offset="0" stop-color="#232826"/>
      <stop offset="1" stop-color="#151817"/>
    </linearGradient>
    <pattern id="dots" width="8" height="8" patternUnits="userSpaceOnUse">
      <circle cx="1" cy="1" r="0.55" fill="#cfc4af" opacity="0.35"/>
    </pattern>
  </defs>

  <!-- Panel body -->
  <rect width="150" height="380" fill="#111413"/>
  <rect x="5" y="5" width="140" height="370" rx="7" fill="url(#panel)" stroke="#202422" stroke-width="2"/>
  <rect x="7" y="7" width="136" height="366" rx="5" fill="url(#dots)" opacity="0.55"/>

  <!-- Header area. Text is drawn in RndSample.cpp. -->
  <rect x="7" y="7" width="136" height="62" rx="5" fill="url(#header)"/>
  <rect x="7" y="61" width="136" height="8" fill="#d6a33f"/>
  <rect x="18" y="62" width="114" height="1" fill="#f1d58b" opacity="0.75"/>

  <!-- Screw marks -->
  <circle cx="16" cy="17" r="3.2" fill="#0e100f" stroke="#4a504a" stroke-width="1"/>
  <circle cx="134" cy="17" r="3.2" fill="#0e100f" stroke="#4a504a" stroke-width="1"/>
  <circle cx="16" cy="363" r="3.2" fill="#b9ad99" stroke="#7f7568" stroke-width="1"/>
  <circle cx="134" cy="363" r="3.2" fill="#b9ad99" stroke="#7f7568" stroke-width="1"/>

  <!-- Basket display background. Dynamic basket text is drawn in RndSample.cpp. -->
  <rect x="17" y="50" width="116" height="43" rx="5" fill="#181c1a" stroke="#d6a33f" stroke-width="1.2"/>
  <rect x="22" y="55" width="106" height="33" rx="3" fill="#222825"/>
  <line x1="28" y1="63" x2="122" y2="63" stroke="#d6a33f" stroke-width="1" opacity="0.55"/>
  <line x1="28" y1="79" x2="122" y2="79" stroke="#d6a33f" stroke-width="1" opacity="0.25"/>

  <!-- Knob guide marks: PROB 36,139 / N 75,139 / SEED 114,139 -->
  <g fill="none" stroke-linecap="round">
    <path d="M25 109h22" stroke="#d6a33f" stroke-width="2"/>
    <path d="M64 109h22" stroke="#d6a33f" stroke-width="2"/>
    <path d="M103 109h22" stroke="#d6a33f" stroke-width="2"/>
    <path d="M30 129a20 20 0 0 1 12 0" stroke="#81786b" stroke-width="1.1"/>
    <path d="M69 129a20 20 0 0 1 12 0" stroke="#81786b" stroke-width="1.1"/>
    <path d="M108 129a20 20 0 0 1 12 0" stroke="#81786b" stroke-width="1.1"/>
  </g>

  <g stroke="#81786b" stroke-width="1" opacity="0.75">
    <line x1="24" y1="139" x2="20" y2="139"/>
    <line x1="48" y1="139" x2="52" y2="139"/>
    <line x1="63" y1="139" x2="59" y2="139"/>
    <line x1="87" y1="139" x2="91" y2="139"/>
    <line x1="102" y1="139" x2="98" y2="139"/>
    <line x1="126" y1="139" x2="130" y2="139"/>
  </g>

  <!-- Rules section: NOREP switch 38,216 / RESET button 112,216 -->
  <rect x="15" y="174" width="120" height="65" rx="5" fill="#f7f0e4" opacity="0.72" stroke="#c6baa6" stroke-width="1"/>
  <rect x="21" y="186" width="34" height="39" rx="3" fill="#eadfcb"/>
  <rect x="95" y="186" width="34" height="39" rx="3" fill="#eadfcb"/>
  <circle cx="112" cy="216" r="12" fill="#3a1d1d" opacity="0.12"/>

  <!-- Inputs section: TRIG 38,274 / RESET 112,274 -->
  <rect x="15" y="242" width="120" height="42" rx="5" fill="#202422"/>
  <rect x="21" y="251" width="34" height="26" rx="3" fill="#2c3330"/>
  <rect x="95" y="251" width="34" height="26" rx="3" fill="#2c3330"/>
  <path d="M61 263h28" stroke="#d6a33f" stroke-width="1.4" stroke-linecap="round" opacity="0.85"/>

  <!-- Outputs section: V/OCT 38,310 / CV 112,310 / INDEX 38,343 / GATE 112,343 -->
  <rect x="15" y="288" width="120" height="70" rx="5" fill="#f7f0e4" opacity="0.78" stroke="#c6baa6" stroke-width="1"/>
  <rect x="23" y="300" width="30" height="49" rx="3" fill="#eadfcb"/>
  <rect x="97" y="300" width="30" height="49" rx="3" fill="#eadfcb"/>
  <line x1="63" y1="300" x2="87" y2="300" stroke="#d6a33f" stroke-width="1.4" stroke-linecap="round"/>
  <line x1="63" y1="329" x2="87" y2="329" stroke="#d6a33f" stroke-width="1.4" stroke-linecap="round" opacity="0.6"/>

  <!-- Main separators -->
  <line x1="18" y1="170" x2="132" y2="170" stroke="#b6aa96" stroke-width="1"/>
  <line x1="18" y1="238" x2="132" y2="238" stroke="#b6aa96" stroke-width="1"/>
  <line x1="18" y1="286" x2="132" y2="286" stroke="#b6aa96" stroke-width="1"/>
</svg>
